<svg width="75" height="75" viewBox="0 0 75 75" fill="none" xmlns="http://www.w3.org/2000/svg">
<path fill-rule="evenodd" clip-rule="evenodd" d="M20.1843 12.2394L12.157 10.4854L2.9739 8.47631C1.25602 8.10158 0.0550842 6.57558 0.0550842 4.85093C0.0550842 4.71774 0.0641138 4.58455 0.0776582 4.44911C0.262765 2.75832 1.57431 1.41065 3.25833 1.17588C6.51124 0.719888 9.68966 0.415139 12.7755 0.241318C15.6718 0.0787859 18.489 0.0291231 21.2159 0.0720137L21.2159 0.0720133C35.3111 0.295496 47.0044 3.02017 54.815 5.49654C61.8085 7.71556 67.2849 13.192 69.5017 20.1832C71.9803 27.9938 74.705 39.6871 74.9285 53.7845C74.9713 56.5115 74.9217 59.3287 74.7591 62.2249C74.5853 65.3108 74.2806 68.4892 73.8246 71.7421C73.7072 72.5841 73.3122 73.3336 72.732 73.8934C72.1541 74.4555 71.3934 74.8303 70.5491 74.9205C68.6642 75.126 66.9282 73.8776 66.5242 72.0243L64.5173 62.8435H64.5151L62.7611 54.8162L62.0139 51.4007C57.8129 32.1903 42.8079 17.1876 23.5997 12.9866L20.1843 12.2394Z" fill="url(#paint0_radial)"/>
<path d="M74.9614 53.7272C75.0043 56.4541 74.9546 59.2713 74.7921 62.1676H74.7763L64.5503 62.7861H64.548L62.794 54.7588L74.9614 53.7272Z" fill="url(#paint1_linear)"/>
<path d="M21.2489 0.0146635L20.2172 12.182L12.1899 10.428L12.8085 0.19977V0.183968C15.7047 0.0214357 18.5219 -0.028227 21.2489 0.0146635Z" fill="url(#paint2_linear)"/>
<defs>
<radialGradient id="paint0_radial" cx="0" cy="0" r="1" gradientUnits="userSpaceOnUse" gradientTransform="translate(46.0509 29.7976) rotate(62.1027) scale(56.4485 56.4506)">
<stop stop-color="#F095FF"/>
<stop offset="1" stop-color="#3600AA"/>
</radialGradient>
<linearGradient id="paint1_linear" x1="68.885" y1="53.7272" x2="68.885" y2="62.7861" gradientUnits="userSpaceOnUse">
<stop stop-color="#86D3FF"/>
<stop offset="1" stop-color="#001AFF"/>
</linearGradient>
<linearGradient id="paint2_linear" x1="16.7194" y1="0" x2="16.7194" y2="12.182" gradientUnits="userSpaceOnUse">
<stop stop-color="#86D3FF"/>
<stop offset="1" stop-color="#001AFF"/>
</linearGradient>
</defs>
</svg>
