<svg width="100" height="100" viewBox="0 0 100 100" fill="none" xmlns="http://www.w3.org/2000/svg">
<mask id="path-1-inside-1" fill="white">
<path fill-rule="evenodd" clip-rule="evenodd" d="M26.9124 16.3192L16.2093 13.9805L3.9652 11.3017C1.6747 10.8021 0.0734482 8.76744 0.0734482 6.4679C0.0734482 6.29032 0.0854876 6.11274 0.103547 5.93214C0.350356 3.67776 2.09909 1.88087 4.34444 1.56784C8.68166 0.959849 12.9195 0.553518 17.034 0.321757C20.8957 0.105047 24.652 0.0388296 28.2879 0.096017L28.2879 0.0960154C47.0815 0.393992 62.6726 4.0269 73.0867 7.32872C82.4113 10.2874 89.7132 17.5893 92.6689 26.9109C95.9737 37.325 99.6066 52.9161 99.9046 71.7127C99.9618 75.3486 99.8956 79.1049 99.6789 82.9666C99.4471 87.0811 99.0408 91.319 98.4328 95.6562C98.2763 96.7788 97.7495 97.7781 96.976 98.5246C96.2055 99.274 95.1912 99.7737 94.0655 99.8941C91.5522 100.168 89.2376 98.5035 88.6989 96.0324L86.0231 83.7913H86.0201L83.6814 73.0882L82.6852 68.5343C77.0838 42.9204 57.0772 22.9168 31.4663 17.3154L26.9124 16.3192Z"/>
</mask>
<path fill-rule="evenodd" clip-rule="evenodd" d="M26.9124 16.3192L16.2093 13.9805L3.9652 11.3017C1.6747 10.8021 0.0734482 8.76744 0.0734482 6.4679C0.0734482 6.29032 0.0854876 6.11274 0.103547 5.93214C0.350356 3.67776 2.09909 1.88087 4.34444 1.56784C8.68166 0.959849 12.9195 0.553518 17.034 0.321757C20.8957 0.105047 24.652 0.0388296 28.2879 0.096017L28.2879 0.0960154C47.0815 0.393992 62.6726 4.0269 73.0867 7.32872C82.4113 10.2874 89.7132 17.5893 92.6689 26.9109C95.9737 37.325 99.6066 52.9161 99.9046 71.7127C99.9618 75.3486 99.8956 79.1049 99.6789 82.9666C99.4471 87.0811 99.0408 91.319 98.4328 95.6562C98.2763 96.7788 97.7495 97.7781 96.976 98.5246C96.2055 99.274 95.1912 99.7737 94.0655 99.8941C91.5522 100.168 89.2376 98.5035 88.6989 96.0324L86.0231 83.7913H86.0201L83.6814 73.0882L82.6852 68.5343C77.0838 42.9204 57.0772 22.9168 31.4663 17.3154L26.9124 16.3192Z" fill="url(#paint0_radial)"/>
<path d="M16.2093 13.9805L15.5681 16.9112L15.5689 16.9114L16.2093 13.9805ZM26.9124 16.3192L27.5535 13.3885L27.5528 13.3883L26.9124 16.3192ZM3.9652 11.3017L4.60638 8.37106L4.60457 8.37066L3.9652 11.3017ZM0.103547 5.93214L-2.87863 5.60566L-2.88017 5.61964L-2.88156 5.63363L0.103547 5.93214ZM4.34444 1.56784L4.75867 4.53911L4.76091 4.53879L4.34444 1.56784ZM17.034 0.321757L16.8659 -2.67353L16.8653 -2.6735L17.034 0.321757ZM28.2879 0.096017L28.2407 3.09565L28.57 3.10083L28.8927 3.03443L28.2879 0.096017ZM28.2879 0.0960154L28.3355 -2.90361L28.0059 -2.90883L27.6831 -2.8424L28.2879 0.0960154ZM73.0867 7.32872L73.994 4.46921L73.9934 4.46901L73.0867 7.32872ZM92.6689 26.9109L89.8092 27.8176L89.8094 27.8183L92.6689 26.9109ZM99.9046 71.7127L102.904 71.6655L102.904 71.6652L99.9046 71.7127ZM99.6789 82.9666L102.674 83.1353L102.674 83.1347L99.6789 82.9666ZM98.4328 95.6562L95.4618 95.2397L95.4615 95.2419L98.4328 95.6562ZM96.976 98.5246L94.8928 96.3658L94.8843 96.3741L96.976 98.5246ZM94.0655 99.8941L93.7464 96.9111L93.7404 96.9117L94.0655 99.8941ZM88.6989 96.0324L91.63 95.3933L91.6297 95.3918L88.6989 96.0324ZM86.0231 83.7913L88.9539 83.1506L88.4382 80.7913H86.0231V83.7913ZM86.0201 83.7913L83.0893 84.4317L83.6048 86.7913H86.0201V83.7913ZM83.6814 73.0882L86.6123 72.4478L86.6121 72.4471L83.6814 73.0882ZM82.6852 68.5343L79.7544 69.1752L79.7545 69.1754L82.6852 68.5343ZM31.4663 17.3154L30.8252 20.2461L30.8253 20.2462L31.4663 17.3154ZM15.5689 16.9114L26.272 19.25L27.5528 13.3883L16.8497 11.0497L15.5689 16.9114ZM3.32403 14.2324L15.5681 16.9112L16.8505 11.0498L4.60638 8.37106L3.32403 14.2324ZM-2.92655 6.4679C-2.92655 10.1602 -0.359935 13.4288 3.32583 14.2328L4.60457 8.37066C3.70933 8.17538 3.07345 7.37463 3.07345 6.4679H-2.92655ZM-2.88156 5.63363C-2.90555 5.87352 -2.92655 6.15728 -2.92655 6.4679H3.07345C3.07345 6.42335 3.07653 6.35195 3.08866 6.23066L-2.88156 5.63363ZM3.93022 -1.40342C0.327408 -0.901155 -2.48199 1.9826 -2.87863 5.60566L3.08573 6.25863C3.1827 5.37291 3.87076 4.66289 4.75867 4.53911L3.93022 -1.40342ZM16.8653 -2.6735C12.6698 -2.43717 8.34922 -2.02288 3.92797 -1.40311L4.76091 4.53879C9.01409 3.94258 13.1693 3.54421 17.2027 3.31701L16.8653 -2.6735ZM28.3351 -2.90361C24.6303 -2.96188 20.8021 -2.89442 16.8659 -2.67353L17.2021 3.31704C20.9892 3.10452 24.6737 3.03954 28.2407 3.09565L28.3351 -2.90361ZM28.8927 3.03443L28.8927 3.03443L27.6831 -2.8424L27.6831 -2.8424L28.8927 3.03443ZM28.2403 3.09564C46.6791 3.38799 61.9765 6.95336 72.18 10.1884L73.9934 4.46901C63.3687 1.10043 47.4839 -2.6 28.3355 -2.90361L28.2403 3.09564ZM72.1794 10.1882C80.5749 12.8521 87.1484 19.4261 89.8092 27.8176L95.5286 26.0041C92.278 15.7526 84.2476 7.7227 73.994 4.46921L72.1794 10.1882ZM89.8094 27.8183C93.0472 38.0213 96.6126 53.3185 96.905 71.7603L102.904 71.6652C102.601 52.5137 98.9002 36.6288 95.5284 26.0035L89.8094 27.8183ZM102.674 83.1347C102.895 79.1985 102.963 75.3703 102.904 71.6655L96.905 71.7599C96.9611 75.3269 96.8961 79.0114 96.6836 82.7985L102.674 83.1347ZM101.404 96.0726C102.024 91.6514 102.438 87.3308 102.674 83.1353L96.6836 82.7979C96.4564 86.8313 96.058 90.9865 95.4618 95.2397L101.404 96.0726ZM99.0592 100.683C100.306 99.4799 101.153 97.87 101.404 96.0704L95.4615 95.2419C95.3994 95.6876 95.1928 96.0763 94.8928 96.3658L99.0592 100.683ZM94.3845 102.877C96.2001 102.683 97.8326 101.876 99.0677 100.675L94.8843 96.3741C94.5784 96.6716 94.1822 96.8645 93.7464 96.9111L94.3845 102.877ZM85.7677 96.6715C86.6334 100.642 90.3531 103.316 94.3905 102.876L93.7404 96.9117C92.7513 97.0195 91.8419 96.3651 91.63 95.3933L85.7677 96.6715ZM83.0923 84.4319L85.7681 96.673L91.6297 95.3918L88.9539 83.1506L83.0923 84.4319ZM86.0201 86.7913H86.0231V80.7913H86.0201V86.7913ZM80.7506 73.7286L83.0893 84.4317L88.951 83.1509L86.6123 72.4478L80.7506 73.7286ZM86.6121 72.4471L85.6159 67.8931L79.7545 69.1754L80.7507 73.7294L86.6121 72.4471ZM85.6159 67.8934C79.7641 41.1343 58.8631 20.2365 32.1073 14.3847L30.8253 20.2462C55.2914 25.5971 74.4035 44.7065 79.7544 69.1752L85.6159 67.8934ZM32.1075 14.3848L27.5535 13.3885L26.2712 19.2499L30.8252 20.2461L32.1075 14.3848Z" fill="#FF9F2E" mask="url(#path-1-inside-1)"/>
<path d="M99.9486 71.6362C100.006 75.2722 99.9395 79.0285 99.7228 82.8901H99.7017L86.067 83.7148H86.064L83.7254 73.0117L99.9486 71.6362Z" fill="url(#paint1_linear)"/>
<path d="M28.3318 0.0195514L26.9563 16.2427L16.2533 13.9041L17.078 0.26636V0.245291C20.9396 0.028581 24.6959 -0.037636 28.3318 0.0195514Z" fill="url(#paint2_linear)"/>
<defs>
<radialGradient id="paint0_radial" cx="0" cy="0" r="1" gradientUnits="userSpaceOnUse" gradientTransform="translate(61.4012 39.7302) rotate(62.1027) scale(75.2646 75.2674)">
<stop stop-color="#FFE146"/>
<stop offset="1" stop-color="#FF8D08"/>
</radialGradient>
<linearGradient id="paint1_linear" x1="91.8467" y1="71.6362" x2="91.8467" y2="83.7148" gradientUnits="userSpaceOnUse">
<stop stop-color="#86D3FF"/>
<stop offset="1" stop-color="#001AFF"/>
</linearGradient>
<linearGradient id="paint2_linear" x1="22.2926" y1="0" x2="22.2926" y2="16.2427" gradientUnits="userSpaceOnUse">
<stop stop-color="#86D3FF"/>
<stop offset="1" stop-color="#001AFF"/>
</linearGradient>
</defs>
</svg>
